#!OML:ASF G:\JayActor3\Patient Classification 1\Patient 1\Session 5\male.ASF
:FULLY-SPECIFIED
:DEGREES
895
root -44.1827 16.8134 -6.31217 1392.38 -97.4254 -1380.26
lowerback 18.3321 0.0151499 4.72039
upperback 6.91404 0.356956 -0.337952
thorax -2.78022 0.0472616 -3.09878
lowerneck 6.55506 -0.252081 2.21452
upperneck -16.2679 0.145201 2.73257
head -6.00637 -0.376923 0.497301
rclavicle 3.57812e-015 1.03368e-014
rhumerus -30.8754 -6.02467 -87.3385
rradius 23.8419
rwrist 8.7398
rhand -23.1226 -8.65896
rfingers 7.12502
rthumb 3.32468 -38.6128
lclavicle 3.57812e-015 1.03368e-014
lhumerus -37.7878 7.72341 80.4869
lradius 25.6426
lwrist 18.7051
lhand -20.3935 13.397
lfingers 7.12502
lthumb 5.95989 43.2932
rfemur 5.39387 0.475461 28.3209
rtibia 29.7213
rfoot 20.922 -12.2253
rtoes 5.95348
lfemur -48.4541 12.9415 -24.5544
ltibia 42.4734
lfoot 5.32953 -2.77094
ltoes -24.2872
896
root -44.372 16.7906 -6.32336 1393.65 -96.7299 -1381.54
lowerback 18.66 0.000435825 4.0357
upperback 6.83292 0.234006 -0.514098
thorax -3.05813 -0.024721 -2.87474
lowerneck 6.69499 -0.349876 2.15122
upperneck -16.3741 0.050665 2.99421
head -6.06418 -0.443294 0.598444
rclavicle 1.90833e-014 8.74653e-015
rhumerus -30.8935 -5.92571 -87.5272
rradius 23.9911
rwrist 8.40229
rhand -23.2086 -8.74601
rfingers 7.12502
rthumb 3.24165 -38.7011
lclavicle 1.90833e-014 8.74653e-015
lhumerus -37.4518 7.4156 80.5524
lradius 25.8051
lwrist 18.8431
lhand -20.3376 13.7789
lfingers 7.12502
lthumb 6.01386 43.6735
rfemur 4.41695 0.903829 27.7091
rtibia 32.0445
rfoot 22.3855 -12.293
rtoes 4.56016
lfemur -48.2949 12.6641 -25.0183
ltibia 43.6067
lfoot 4.13385 -3.09695
ltoes -24.6574
897
root -44.5547 16.7767 -6.33376 1394.85 -96.1603 -1382.68
lowerback 18.9038 -0.00280911 3.52335
upperback 6.78148 0.144871 -0.680878
thorax -3.25276 -0.0754421 -2.74389
lowerneck 6.83267 -0.45157 2.07458
upperneck -16.5071 -0.0486203 3.26918
head -6.1297 -0.51341 0.706987
rclavicle -1.19271e-015 -3.97569e-014
rhumerus -30.8258 -5.77924 -87.778
rradius 24.1445
rwrist 8.09518
rhand -23.3115 -8.81823
rfingers 7.12502
rthumb 3.14228 -38.7748
lclavicle -1.19271e-015 -3.97569e-014
lhumerus -37.0078 7.09537 80.6255
lradius 26.0141
lwrist 19.0468
lhand -20.3656 14.1907
lfingers 7.12502
lthumb 5.98684 44.0861
rfemur 3.28034 1.37651 27.2438
rtibia 34.4019
rfoot 23.9323 -12.1586
rtoes 3.03521
lfemur -48.1922 12.5865 -25.4014
ltibia 44.6092
lfoot 3.12468 -3.67422
ltoes -25.0536
898
root -44.7272 16.7515 -6.34293 1395.87 -95.7036 -1383.58
lowerback 19.0576 -0.00633679 3.17128
upperback 6.76639 0.07576 -0.833651
thorax -3.35709 -0.112932 -2.69239
lowerneck 6.96155 -0.548123 1.9927
upperneck -16.6376 -0.144488 3.52548
head -6.19256 -0.580207 0.810629
rclavicle -5.96354e-015 -3.02153e-014
rhumerus -30.6558 -5.605 -88.0742
rradius 24.2865
rwrist 7.86849
rhand -23.4153 -8.86583
rfingers 7.12502
rthumb 3.04202 -38.8239
lclavicle -5.96354e-015 -3.02153e-014
lhumerus -36.4816 6.76764 80.7184
lradius 26.2614
lwrist 19.3115
lhand -20.5411 14.5072
lfingers 7.12502
lthumb 5.81741 44.4073
rfemur 2.0038 1.86034 26.9029
rtibia 36.8004
rfoot 25.3559 -11.8576
rtoes 1.85485
lfemur -48.2376 12.7106 -25.7479
ltibia 45.5575
lfoot 2.37027 -4.44227
ltoes -25.3782
899
root -44.8998 16.7577 -6.34986 1396.63 -95.306 -1384.21
lowerback 19.124 -0.0258147 2.93916
upperback 6.80097 0.00070229 -0.977655
thorax -3.36141 -0.150945 -2.69773
lowerneck 7.07365 -0.620269 1.90478
upperneck -16.7519 -0.214298 3.74275
head -6.24732 -0.630391 0.901093
rclavicle 5.96354e-015 2.94201e-014
rhumerus -30.3801 -5.40213 -88.4069
rradius 24.4214
rwrist 7.73401
rhand -23.516 -8.87151
rfingers 7.12502
rthumb 2.94482 -38.8309
lclavicle 5.96354e-015 2.94201e-014
lhumerus -35.8847 6.45831 80.8234
lradius 26.5202
lwrist 19.6527
lhand -20.8599 14.5711
lfingers 7.12502
lthumb 5.50961 44.4795
rfemur 0.675607 2.32787 26.6222
rtibia 39.097
rfoot 26.5609 -11.4521
rtoes 1.03108
lfemur -48.1643 13.0202 -26.0827
ltibia 46.2965
lfoot 1.81523 -5.35008
ltoes -25.5707
900
root -45.0677 16.7747 -6.35595 1397.33 -94.9393 -1384.76
lowerback 19.1241 -0.0575687 2.76482
upperback 6.87151 -0.0835219 -1.11083
thorax -3.29279 -0.192242 -2.72204
lowerneck 7.12131 -0.66869 1.81288
upperneck -16.7956 -0.264189 3.90539
head -6.26841 -0.663707 0.972503
rclavicle 1.51076e-014 0
rhumerus -30.0163 -5.16914 -88.7569
rradius 24.5586
rwrist 7.66674
rhand -23.588 -8.84055
rfingers 7.12502
rthumb 2.87528 -38.8009
lclavicle 1.51076e-014 0
lhumerus -35.2444 6.16481 80.9455
lradius 26.7908
lwrist 20.047
lhand -21.2859 14.3514
lfingers 7.12502
lthumb 5.09828 44.27
rfemur -0.721897 2.77432 26.3639
rtibia 41.3192
rfoot 27.4448 -10.9886
rtoes 0.53822
lfemur -48.074 13.4522 -26.4429
ltibia 46.8818
lfoot 1.53904 -6.30422
ltoes -25.5944
901
root -45.231 16.8019 -6.36187 1398.13 -94.5456 -1385.4
lowerback 19.0825 -0.107361 2.57877
upperback 6.96442 -0.194586 -1.23394
thorax -3.18036 -0.246584 -2.72311
lowerneck 7.13168 -0.680305 1.70767
upperneck -16.7806 -0.277273 4.00483
head -6.26461 -0.670893 1.02244
rclavicle 6.75868e-015 1.82882e-014
rhumerus -29.5948 -4.90331 -89.1021
rradius 24.6903
rwrist 7.64594
rhand -23.6404 -8.74273
rfingers 7.12502
rthumb 2.82466 -38.7038
lclavicle 6.75868e-015 1.82882e-014
lhumerus -34.5983 5.88032 81.0982
lradius 27.0834
lwrist 20.4561
lhand -21.7261 14.1442
lfingers 7.12502
lthumb 4.6732 44.0727
rfemur -2.15161 3.17524 26.0706
rtibia 43.3926
rfoot 27.9836 -10.5473
rtoes 0.339521
lfemur -47.9262 13.9389 -26.872
ltibia 47.2384
lfoot 1.57385 -7.26887
ltoes -25.5849
902
root -45.391 16.839 -6.36749 1398.96 -94.1156 -1386.06
lowerback 19.0184 -0.178901 2.37593
upperback 7.05546 -0.335166 -1.33983
thorax -3.06007 -0.315724 -2.6902
lowerneck 7.12693 -0.66104 1.58716
upperneck -16.7095 -0.259905 4.0463
head -6.24068 -0.655421 1.05345
rclavicle -9.54166e-015 -2.06736e-014
rhumerus -29.1804 -4.57037 -89.4215
rradius 24.8109
rwrist 7.65683
rhand -23.7585 -8.46094
rfingers 7.12502
rthumb 2.71061 -38.4235
lclavicle -9.54166e-015 -2.06736e-014
lhumerus -33.9898 5.60098 81.2814
lradius 27.3945
lwrist 20.8594
lhand -22.1473 13.8944
lfingers 7.12502
lthumb 4.26653 43.8314
rfemur -3.65863 3.51264 25.7317
rtibia 45.3912
rfoot 28.2049 -10.0607
rtoes 0.174768
lfemur -47.7305 14.4205 -27.3465
ltibia 47.4354
lfoot 1.84622 -8.18045
ltoes -25.4841
903
root -45.5484 16.8831 -6.37253 1399.62 -93.6445 -1386.52
lowerback 18.9422 -0.277416 2.16975
upperback 7.12731 -0.507764 -1.42485
thorax -2.95547 -0.400837 -2.62679
lowerneck 7.10402 -0.61751 1.4431
upperneck -16.5805 -0.219349 4.04904
head -6.1955 -0.621919 1.07357
rclavicle -1.19271e-015 -1.59028e-014
rhumerus -28.7827 -4.18585 -89.6991
rradius 24.8952
rwrist 7.66243
rhand -23.9365 -8.03573
rfingers 7.12502
rthumb 2.53866 -38.0004
lclavicle -1.19271e-015 -1.59028e-014
lhumerus -33.4431 5.33671 81.4859
lradius 27.7107
lwrist 21.2347
lhand -22.4788 13.6231
lfingers 7.12502
lthumb 3.94644 43.5663
rfemur -5.24603 3.76356 25.3492
rtibia 47.3167
rfoot 28.1668 -9.52853
rtoes 0.0385623
lfemur -47.499 14.846 -27.8462
ltibia 47.4912
lfoot 2.28456 -9.03241
ltoes -25.4844
904
root -45.7038 16.9332 -6.37685 1399.8 -93.1531 -1386.49
lowerback 18.875 -0.402055 1.97281
upperback 7.15767 -0.706683 -1.47486
thorax -2.9004 -0.499119 -2.52623
lowerneck 7.09566 -0.560366 1.2659
upperneck -16.4106 -0.167398 4.02756
head -6.14006 -0.577483 1.09031
rclavicle -2.10712e-014 -4.53229e-014
rhumerus -28.4656 -3.6976 -89.9349
rradius 25.0208
rwrist 7.50577
rhand -24.0033 -7.70884
rfingers 7.12502
rthumb 2.4742 -37.6742
lclavicle -2.10712e-014 -4.53229e-014
lhumerus -32.999 5.1034 81.7112
lradius 28.0326
lwrist 21.5765
lhand -22.6866 13.3763
lfingers 7.12502
lthumb 3.74577 43.3232
rfemur -6.90137 3.92745 24.9481
rtibia 49.1576
rfoot 27.8929 -9.04599
rtoes -0.0147645
lfemur -47.2235 15.1788 -28.3178
ltibia 47.4257
lfoot 2.84695 -9.78256
ltoes -25.4961
905
root -45.8575 16.9876 -6.38022 1398.98 -92.678 -1385.44
lowerback 18.8086 -0.54936 1.83675
upperback 7.14738 -0.919417 -1.49985
thorax -2.88901 -0.603358 -2.43103
lowerneck 7.11465 -0.493274 1.06718
upperneck -16.2227 -0.102716 4.00946
head -6.08403 -0.525438 1.11078
rclavicle 8.74653e-015 -1.27222e-014
rhumerus -28.217 -3.18164 -90.13
rradius 25.1386
rwrist 7.23607
rhand -23.9804 -7.41605
rfingers 7.12502
rthumb 2.49625 -37.3812
lclavicle 8.74653e-015 -1.27222e-014
lhumerus -32.6513 4.89495 81.9287
lradius 28.3511
lwrist 21.8892
lhand -22.7428 13.1782
lfingers 7.12502
lthumb 3.69152 43.126
rfemur -8.61065 4.02723 24.5689
rtibia 50.905
rfoot 27.4157 -8.64116
rtoes -0.0656103
lfemur -46.9039 15.4014 -28.7032
ltibia 47.2627
lfoot 3.4614 -10.4427
ltoes -25.6303
